<?xml version="1.0" encoding="UTF-8"?>
<svg id="Layer_2" data-name="Layer 2" xmlns="http://www.w3.org/2000/svg" xmlns:xlink="http://www.w3.org/1999/xlink" viewBox="0 0 422.52 422.52">
  <defs>
    <style>
      .cls-1 {
        fill: #231f20;
      }

      .cls-2 {
        fill: url(#linear-gradient);
      }

      .cls-3 {
        fill: #fff;
      }

      .cls-4 {
        fill: #cdbcdc;
      }
    </style>
    <linearGradient id="linear-gradient" x1="313.53" y1="386.81" x2="110.26" y2="34.73" gradientUnits="userSpaceOnUse">
      <stop offset="0" stop-color="#914798"/>
      <stop offset=".2" stop-color="#8d4a99"/>
      <stop offset=".38" stop-color="#82569e"/>
      <stop offset=".57" stop-color="#6f69a5"/>
      <stop offset=".75" stop-color="#5484b0"/>
      <stop offset=".93" stop-color="#33a7be"/>
      <stop offset="1" stop-color="#23b8c5"/>
    </linearGradient>
  </defs>
  <circle class="cls-2" cx="211.89" cy="210.77" r="203.24"/>
  <g>
    <path d="M211.26,9.86c27.19,0,53.57,5.32,78.39,15.82,23.98,10.14,45.52,24.67,64.02,43.17,18.5,18.5,33.02,40.04,43.17,64.02,10.5,24.82,15.82,51.2,15.82,78.39s-5.32,53.57-15.82,78.39c-10.14,23.98-24.67,45.52-43.17,64.02-18.5,18.5-40.04,33.02-64.02,43.17-24.82,10.5-51.2,15.82-78.39,15.82s-53.57-5.32-78.39-15.82c-23.98-10.14-45.52-24.67-64.02-43.17-18.5-18.5-33.02-40.04-43.17-64.02-10.5-24.82-15.82-51.2-15.82-78.39s5.32-53.57,15.82-78.39c10.14-23.98,24.67-45.52,43.17-64.02,18.5-18.5,40.04-33.02,64.02-43.17,24.82-10.5,51.2-15.82,78.39-15.82M211.26,0C94.58,0,0,94.58,0,211.26s94.58,211.26,211.26,211.26,211.26-94.58,211.26-211.26S327.94,0,211.26,0h0Z"/>
    <g>
      <polygon class="cls-4" points="102.38 321.61 102.38 195.15 211.9 131.92 321.41 195.15 321.41 321.61 211.9 384.83 102.38 321.61"/>
      <polygon class="cls-4" points="104.86 63.56 200.66 118.88 104.86 174.2 104.86 63.56"/>
      <polygon class="cls-4" points="222.03 118.88 320.03 62.29 320.03 175.46 222.03 118.88"/>
      <path d="M211.89,140.65l101.95,58.86v117.72l-101.95,58.86-101.95-58.86v-117.72l101.95-58.86M211.89,128.92l-112.12,64.73v129.46l112.12,64.73,112.12-64.73v-129.46l-112.12-64.73h0Z"/>
      <polygon class="cls-3" points="280.47 253.05 265.09 227.42 235.2 227.94 250.59 253.56 280.47 253.05"/>
      <path class="cls-1" d="M247.47,259.18l-22.01-36.64,42.74-.73,22,36.64-42.73.73ZM244.93,233.33l8.78,14.61,17.04-.29-8.77-14.61-17.04.29Z"/>
      <polygon class="cls-3" points="188.77 227.94 173.38 253.56 143.49 253.05 158.88 227.42 188.77 227.94"/>
      <path class="cls-1" d="M176.5,259.18l-42.74-.73,22-36.64,42.73.73-22,36.64ZM153.22,247.65l17.04.29,8.77-14.61-17.04-.29-8.77,14.61Z"/>
      <polygon class="cls-3" points="184.06 271.56 148.2 250.85 148.2 209.43 184.06 230.14 184.06 271.56"/>
      <path class="cls-1" d="M189.63,281.19l-47-27.13v-54.27l47,27.14v54.27ZM153.76,247.64l24.74,14.28v-28.57l-24.74-14.28v28.57Z"/>
      <polygon class="cls-3" points="239.9 271.56 275.77 250.85 275.77 209.43 239.9 230.14 239.9 271.56"/>
      <path class="cls-1" d="M234.34,281.19v-54.27l47-27.14v54.27l-47,27.13ZM245.47,233.35v28.57l24.74-14.28v-28.57l-24.74,14.28Z"/>
      <path d="M109.94,75.79l74.63,43.09-74.63,43.09v-86.18M99.78,58.18v121.39l105.13-60.7-105.13-60.7Z"/>
      <path d="M313.85,75.79v86.18s-74.63-43.09-74.63-43.09l74.63-43.09M218.88,118.88l105.13,60.7V58.18s-105.13,60.7-105.13,60.7Z"/>
      <polygon class="cls-1" points="211.89 337.73 181.32 320.08 186.88 310.44 211.89 324.88 236.91 310.44 242.47 320.08 211.89 337.73"/>
      <polygon class="cls-1" points="186.88 310.44 181.32 320.08 175.76 310.44 186.88 310.44"/>
      <polygon class="cls-1" points="236.91 310.44 242.47 320.08 248.03 310.44 236.91 310.44"/>
    </g>
  </g>
</svg>