<?xml version="1.0" encoding="UTF-8"?>
<svg id="Layer_3" data-name="Layer 3" xmlns="http://www.w3.org/2000/svg" xmlns:xlink="http://www.w3.org/1999/xlink" viewBox="0 0 560.47 171.27">
  <defs>
    <style>
      .cls-1 {
        fill: #231f20;
      }

      .cls-2 {
        fill: url(#linear-gradient);
      }

      .cls-3 {
        fill: #fff;
      }

      .cls-4 {
        fill: #cdbcdc;
      }
    </style>
    <linearGradient id="linear-gradient" x1="127.09" y1="156.79" x2="44.69" y2="14.08" gradientUnits="userSpaceOnUse">
      <stop offset="0" stop-color="#914798"/>
      <stop offset=".2" stop-color="#8d4a99"/>
      <stop offset=".38" stop-color="#82569e"/>
      <stop offset=".57" stop-color="#6f69a5"/>
      <stop offset=".75" stop-color="#5484b0"/>
      <stop offset=".93" stop-color="#33a7be"/>
      <stop offset="1" stop-color="#23b8c5"/>
    </linearGradient>
  </defs>
  <g>
    <circle class="cls-2" cx="85.89" cy="85.44" r="82.38"/>
    <g>
      <path d="M85.63,4c11.02,0,21.71,2.16,31.78,6.41,9.72,4.11,18.45,10,25.95,17.5,7.5,7.5,13.39,16.23,17.5,25.95,4.26,10.06,6.41,20.75,6.41,31.78s-2.16,21.71-6.41,31.78c-4.11,9.72-10,18.45-17.5,25.95-7.5,7.5-16.23,13.39-25.95,17.5-10.06,4.26-20.75,6.41-31.78,6.41s-21.71-2.16-31.78-6.41c-9.72-4.11-18.45-10-25.95-17.5-7.5-7.5-13.39-16.23-17.5-25.95-4.26-10.06-6.41-20.75-6.41-31.78s2.16-21.71,6.41-31.78c4.11-9.72,10-18.45,17.5-25.95,7.5-7.5,16.23-13.39,25.95-17.5,10.06-4.26,20.75-6.41,31.78-6.41M85.63,0C38.34,0,0,38.34,0,85.63s38.34,85.63,85.63,85.63,85.63-38.34,85.63-85.63S132.93,0,85.63,0h0Z"/>
      <g>
        <polygon class="cls-4" points="41.5 130.36 41.5 79.1 85.89 53.47 130.28 79.1 130.28 130.36 85.89 155.99 41.5 130.36"/>
        <polygon class="cls-4" points="42.5 25.76 81.34 48.19 42.5 70.61 42.5 25.76"/>
        <polygon class="cls-4" points="90 48.19 129.72 25.25 129.72 71.12 90 48.19"/>
        <path d="M85.89,57.01l41.33,23.86v47.72l-41.33,23.86-41.33-23.86v-47.72l41.33-23.86M85.89,52.26l-45.45,26.24v52.48l45.45,26.24,45.45-26.24v-52.48l-45.45-26.24h0Z"/>
        <polygon class="cls-3" points="113.69 102.57 107.45 92.18 95.34 92.39 101.57 102.78 113.69 102.57"/>
        <path class="cls-1" d="M100.31,105.06l-8.92-14.85,17.32-.3,8.92,14.85-17.32.3ZM99.28,94.58l3.56,5.92,6.91-.12-3.56-5.92-6.91.12Z"/>
        <polygon class="cls-3" points="76.52 92.39 70.28 102.78 58.16 102.57 64.4 92.18 76.52 92.39"/>
        <path class="cls-1" d="M71.54,105.06l-17.32-.3,8.92-14.85,17.32.3-8.92,14.85ZM62.11,100.38l6.91.12,3.56-5.92-6.91-.12-3.56,5.92Z"/>
        <polygon class="cls-3" points="74.61 110.07 60.07 101.68 60.07 84.89 74.61 93.28 74.61 110.07"/>
        <path class="cls-1" d="M76.86,113.98l-19.05-11v-22l19.05,11v22ZM62.33,100.38l10.03,5.79v-11.58l-10.03-5.79v11.58Z"/>
        <polygon class="cls-3" points="97.24 110.07 111.78 101.68 111.78 84.89 97.24 93.28 97.24 110.07"/>
        <path class="cls-1" d="M94.99,113.98v-22l19.05-11v22l-19.05,11ZM99.5,94.59v11.58l10.03-5.79v-11.58l-10.03,5.79Z"/>
        <path d="M44.56,30.72l30.25,17.47-30.25,17.47V30.72M40.44,23.58v49.21l42.61-24.6-42.61-24.6Z"/>
        <path d="M127.22,30.72v34.93s-30.25-17.47-30.25-17.47l30.25-17.47M88.72,48.19l42.61,24.6V23.58s-42.61,24.6-42.61,24.6Z"/>
        <polygon class="cls-1" points="85.89 136.9 73.5 129.74 75.75 125.83 85.89 131.69 96.03 125.83 98.28 129.74 85.89 136.9"/>
        <polygon class="cls-1" points="75.75 125.83 73.5 129.74 71.24 125.83 75.75 125.83"/>
        <polygon class="cls-1" points="96.03 125.83 98.28 129.74 100.54 125.83 96.03 125.83"/>
      </g>
    </g>
  </g>
  <g>
    <g>
      <path class="cls-3" d="M254.14,75.49l-14.59-7.29-43.76-7.29-7.29-3.65v-29.17l21.88-10.94,7.29,7.29v-10.94l21.88-10.94,14.59,14.59v21.88l21.88,21.88v3.65l-21.88,10.94ZM254.14,68.2l14.59-7.29-21.88-21.88v-21.88l-7.29-7.29-14.59,7.29,7.29,7.29v10.94l-14.59-3.65-7.29-7.29-14.59,7.29,7.29,7.29,29.17,7.29,21.88,21.88Z"/>
      <path class="cls-3" d="M334.37,75.49l-51.05-25.53v-29.17l21.88-10.94,51.05,51.05v3.65l-21.88,10.94ZM334.37,68.2l14.59-7.29-43.76-43.76-14.59,7.29,43.76,43.76Z"/>
      <path class="cls-3" d="M414.6,82.78l-51.05-25.53v-29.17l51.05-25.53,14.59,14.59v43.76l7.29,7.29v3.65l-21.88,10.94ZM414.6,75.49l14.59-7.29-21.88-21.88,14.59-7.29-7.29-7.29-14.59,7.29-7.29-7.29,29.17-14.59-7.29-7.29-43.76,21.88,43.76,43.76Z"/>
      <path class="cls-3" d="M494.83,82.78l-51.05-25.53v-29.17l51.05-25.53,14.59,14.59v43.76l7.29,7.29v3.65l-21.88,10.94ZM494.83,75.49l14.59-7.29-21.88-21.88,14.59-7.29-7.29-7.29-14.59,7.29-7.29-7.29,29.17-14.59-7.29-7.29-43.76,21.88,43.76,43.76Z"/>
      <path class="cls-3" d="M239.55,168.71l-51.05-25.53v-29.17l21.88-10.94,36.47,36.47,29.17-14.59,14.59,14.59v3.65l-51.05,25.53ZM239.55,161.42l43.76-21.88-7.29-7.29-29.17,14.59-36.47-36.47-14.59,7.29,43.76,43.76Z"/>
      <path class="cls-3" d="M348.96,161.42l-51.05-25.53v-29.17l21.88-10.94,51.05,51.05v3.65l-21.88,10.94ZM348.96,154.13l14.59-7.29-43.76-43.76-14.59,7.29,43.76,43.76Z"/>
      <path class="cls-3" d="M429.18,168.71l-51.05-25.53v-29.17l51.05-25.53,14.59,14.59v43.76l7.29,7.29v3.65l-21.88,10.94ZM429.18,161.42l14.59-7.29-21.88-21.88,14.59-7.29-7.29-7.29-14.59,7.29-7.29-7.29,29.17-14.59-7.29-7.29-43.76,21.88,43.76,43.76Z"/>
      <path class="cls-3" d="M509.41,168.71l-51.05-25.53v-29.17l51.05-25.53,14.59,14.59v32.82l21.88-10.94,14.59,14.59v3.65l-51.05,25.53ZM509.41,161.42l43.76-21.88-7.29-7.29-29.17,14.59-14.59-14.59,14.59-7.29-7.29-7.29-14.59,7.29-7.29-7.29,29.17-14.59-7.29-7.29-43.76,21.88,43.76,43.76Z"/>
    </g>
    <path class="cls-3" d="M542.7,82.92l-16.68-8.34v-11.12l16.68-8.34,16.68,16.68v2.78l-16.68,8.34ZM542.7,77.36l11.12-5.56-11.12-11.12-11.12,5.56,11.12,11.12Z"/>
  </g>
</svg>